# xmcd
#
# Track frame offsets:
#	225
#	21157
#	37515
#	57848
#	75347
#	89421
#	107506
#	130151
#	151153
#	172035
#
# Disc length: 2539 seconds
#
# Revision: 1
# Processed by: cddbd v1.5.1PL0 Copyright (c) Steve Scherf et al.
# Submitted via: audiograbber 1.83.01
#
DISCID=6809e80a
DTITLE=Combo Delago - 2000 Years
DYEAR=1999
DGENRE=Blues
TTITLE0=2000 Years
TTITLE1=The 'i don't know' song
TTITLE2=Heart in 2
TTITLE3=Tears of joy
TTITLE4=Let me hear you sing
TTITLE5=If god exists
TTITLE6=Walkin to nowhere
TTITLE7=People carry on
TTITLE8=Time
TTITLE9=Nostalgia
EXTD=
EXTT0=
EXTT1=
EXTT2=
EXTT3=
EXTT4=
EXTT5=
EXTT6=
EXTT7=
EXTT8=
EXTT9=
PLAYORDER=
